<svg width="178" height="50" viewBox="0 0 178 54" fill="none" xmlns="http://www.w3.org/2000/svg">
<path d="M18.2787 12.5H0V54H178V40L171.907 43L163.638 40L157.98 33L144.489 29.5L138.396 20L135.35 16.5L128.386 20L121.423 24.5L112.284 12.5L107.932 20L100.098 9.5H92.6993L79.2078 12.5L71.3741 20L65.7164 16.5L47.8729 20V12.5L37.8631 9.5L34.8166 0L18.2787 12.5Z" fill="url(#paint0_linear_11_235)" fill-opacity="0.2"/>
<!-- <path d="M18.2787 12.5H0V54H178V40L171.907 43L163.638 40L157.98 33L144.489 29.5L138.396 20L135.35 16.5L128.386 20L121.423 24.5L112.284 12.5L107.932 20L100.098 9.5H92.6993L79.2078 12.5L71.3741 20L65.7164 16.5L47.8729 20V12.5L37.8631 9.5L34.8166 0L18.2787 12.5Z" fill="white" fill-opacity="0.2"/> -->
<path d="M0 13H18.2787L33.9462 1L37.4279 8L47.0024 13V19.5L65.7164 16.5L71.3741 19.5L79.2078 13L98.7922 8L107.496 19.5L111.413 13L120.553 24.5L135.35 16.5L144.489 29.5L158.416 33.5L161.897 39.5L168.861 43L174.083 39.5H177.13" stroke="#E33939"/>
<defs>
<linearGradient id="paint0_linear_11_235" x1="89" y1="0" x2="89" y2="54" gradientUnits="userSpaceOnUse">
<stop stop-color="#B87272"/>
<stop offset="1" stop-color="#EE2F2F" stop-opacity="0"/>
</linearGradient>
</defs>
</svg>
