<!-- <svg width="178" height="54" viewBox="0 0 178 54" fill="none" xmlns="http://www.w3.org/2000/svg">
<path d="M159.721 12.5H178V54H0V40L6.09291 43L14.3619 40L20.0196 33L33.511 29.5L39.6039 20L42.6504 16.5L49.6137 20L56.577 24.5L65.7164 12.5L70.0685 20L77.9022 9.5H85.3007L98.7922 12.5L106.626 20L112.284 16.5L130.127 20V12.5L140.137 9.5L143.183 0L159.721 12.5Z" fill="url(#paint0_linear_11_235)" fill-opacity="0.2"/>
<path d="M159.721 12.5H178V54H0V40L6.09291 43L14.3619 40L20.0196 33L33.511 29.5L39.6039 20L42.6504 16.5L49.6137 20L56.577 24.5L65.7164 12.5L70.0685 20L77.9022 9.5H85.3007L98.7922 12.5L106.626 20L112.284 16.5L130.127 20V12.5L140.137 9.5L143.183 0L159.721 12.5Z" fill="white" fill-opacity="0.2"/>
<path d="M178 13H159.721L144.054 1L140.572 8L130.998 13V19.5L112.284 16.5L106.626 19.5L98.7922 13L79.2078 8L70.5037 19.5L66.5868 13L57.4474 24.5L42.6504 16.5L33.511 29.5L19.5843 33.5L16.1027 39.5L9.13936 43L3.91686 39.5H0.870408" stroke="#1CAB44"/>
<defs>
<linearGradient id="paint0_linear_11_235" x1="89" y1="0" x2="89" y2="54" gradientUnits="userSpaceOnUse">
<stop stop-color="#72B885"/>
<stop offset="1" stop-color="#33EE2F" stop-opacity="0"/>
</linearGradient>
</defs>
</svg> -->

<!-- <svg width="178" height="60" viewBox="0 0 178 60" fill="none" xmlns="http://www.w3.org/2000/svg">
<path d="M18.2787 36.5L0 60H178V0L173 4.5L162 9L157.98 16L144.489 19.5L138.396 29L135.35 32.5L128.386 29L121.423 24.5L110.5 36.5L107.932 29L99 41L92.6993 39.5L79.2078 36.5L71.3741 29L65.7164 32.5L46.5 29V36L37.5 41L34 48.5L18.2787 36.5Z" fill="url(#paint0_linear_11_286)" fill-opacity="0.2"/>
<path d="M18.2787 36.5L0 60H178V0L173 4.5L162 9L157.98 16L144.489 19.5L138.396 29L135.35 32.5L128.386 29L121.423 24.5L110.5 36.5L107.932 29L99 41L92.6993 39.5L79.2078 36.5L71.3741 29L65.7164 32.5L46.5 29V36L37.5 41L34 48.5L18.2787 36.5Z" fill="white" fill-opacity="0.2"/>
<path d="M1.5 58L18.2787 36L33.9462 48L37.4279 41L47.0024 36V29.5L65.7164 32.5L71.3741 29.5L79.2078 36L98.7922 41L107.496 29.5L111.413 36L120.553 24.5L135.35 32.5L144.489 19.5L158.416 15.5L161.897 9.5L168.861 6L173.5 4L177 1" stroke="#1CAB44"/>
<defs>
<linearGradient id="paint0_linear_11_286" x1="89" y1="49" x2="89" y2="-4.99996" gradientUnits="userSpaceOnUse">
<stop stop-color="#7FB67A"/>
<stop offset="1" stop-color="#16D012" stop-opacity="0.01"/>
</linearGradient>
</defs>
</svg> -->

<svg width="178" height="50" viewBox="0 0 178 54" fill="none" xmlns="http://www.w3.org/2000/svg">
<path d="M18.2787 36.5L0 60H178V0L173 4.5L162 9L157.98 16L144.489 19.5L138.396 29L135.35 32.5L128.386 29L121.423 24.5L110.5 36.5L107.932 29L99 41L92.6993 39.5L79.2078 36.5L71.3741 29L65.7164 32.5L46.5 29V36L37.5 41L34 48.5L18.2787 36.5Z" fill="url(#paint0_linear_11_286)" fill-opacity="0.2"/>
<path d="M1.5 58L18.2787 36L33.9462 48L37.4279 41L47.0024 36V29.5L65.7164 32.5L71.3741 29.5L79.2078 36L98.7922 41L107.496 29.5L111.413 36L120.553 24.5L135.35 32.5L144.489 19.5L158.416 15.5L161.897 9.5L168.861 6L173.5 4L177 1" stroke="#1CAB44"/>
<defs>
<linearGradient id="paint0_linear_11_286" x1="89" y1="49" x2="89" y2="-4.99996" gradientUnits="userSpaceOnUse">
<stop stop-color="#7FB67A"/>
<stop offset="1" stop-color="#16D012" stop-opacity="0.01"/>
</linearGradient>
</defs>
</svg>



